# xmcd
#
# Track frame offsets: 
#        150
#        13614
#        22287
#        32832
#        44980
#        67772
#        79657
#        90579
#        101956
#        113764
#        128331
#
# Disc length: 1870 seconds
#
# Revision: 0
# Processed by: cddbd v1.5.2PL0 Copyright (c) Steve Scherf et al.
# Submitted via: ExactAudioCopy v1.0b1
#
DISCID=8b074c0b
DTITLE=Johnny Cash - Happiness Is You
DYEAR=1966
DGENRE=Country
TTITLE0=Happiness Is You
TTITLE1=Guess Things Happen That Way
TTITLE2=Ancient History
TTITLE3=You Comb Her Hair
TTITLE4=She Came From The Mountains
TTITLE5=For Lovin' Me
TTITLE6=No One Will Ever Know
TTITLE7=This Is My Destiny
TTITLE8=A Wound Time Can't Erase
TTITLE9=Happy To Be WIth You
TTITLE10=Wabash Cannonball
EXTD=
EXTT0=
EXTT1=
EXTT2=
EXTT3=
EXTT4=
EXTT5=
EXTT6=
EXTT7=
EXTT8=
EXTT9=
EXTT10=
PLAYORDER=
